<svg height="1296pt" preserveAspectRatio="xMidYMid meet" viewBox="0 0 5559 1296" width="5559pt" xmlns="http://www.w3.org/2000/svg"><g transform="matrix(.1 0 0 -.1 0 1296)"><path d="m6125 12944c-784-50-1497-217-2184-511-1572-671-2821-1943-3461-3523-236-585-378-1162-446-1822-21-208-30-784-15-1008 68-1022 348-1956 849-2830 430-751 1037-1435 1737-1958 1378-1031 3104-1468 4810-1221 711 103 1446 340 2065 667 620 327 1130 708 1630 1218 403 411 708 812 988 1299 1026 1784 1137 3981 296 5862-633 1417-1774 2578-3172 3227-697 324-1398 511-2192 586-114 11-790 21-905 14zm730-1274c1093-80 2131-500 2980-1205 153-127 267-237 262-254-2-9-435-786-961-1726-636-1136-968-1721-991-1742-38-36-101-57-142-47-15 3-725 358-1578 788-852 429-1572 791-1600 803-248 106-547 43-745-156-74-75-82-89-1168-2007-601-1062-1098-1938-1105-1948-12-16-22 0-85 140-234 521-373 1034-439 1624-22 192-25 819-5 1000 92 844 334 1568 754 2254 339 553 792 1051 1315 1442 790 592 1755 954 2748 1033 158 12 596 13 760 1z"/><path d="m40076 9789c-549-52-1001-313-1340-773-182-246-286-449-397-776-216-631-298-1592-214-2485 87-923 341-1582 784-2038 367-377 808-557 1368-557 337 0 609 61 878 195 166 83 290 172 433 310 522 503 792 1268 852 2405 36 700-23 1419-161 1960-212 826-672 1412-1290 1643-267 100-618 144-913 116zm432-475c380-56 678-252 906-594 308-463 466-1227 466-2250 0-761-83-1367-246-1809-146-393-387-704-674-866-321-182-768-224-1124-104-237 79-442 225-609 434-367 459-538 1118-563 2175-17 719 59 1388 212 1861 217 673 632 1077 1189 1158 101 15 330 12 443-5z"/><path d="m14710 6567v-3227h605 605l2 1652 3 1653 1479-1615c813-888 1494-1631 1512-1650l34-35v3223 3222h-630-630l-2-1618-3-1618-1460 1593c-803 877-1472 1606-1487 1620l-28 27z"/><path d="m19670 6551v-3241h730 730l2 1087 3 1088 345 6c471 9 688 39 996 140 605 199 1014 596 1204 1167 90 274 123 503 124 867 1 279-8 389-50 589-168 797-733 1301-1651 1471-307 57-336 58-1425 62l-1008 4zm2010 2164c345-78 515-269 597-671 23-113 26-589 5-723-63-399-212-607-503-707-123-41-236-56-449-58l-195-1-3 1094-2 1093 237-5c171-4 259-10 313-22z"/><path d="m24330 6550v-3240h1680 1680l5 22c5 24 145 1112 145 1129 0 5-386 9-1020 9h-1020v2660 2660h-735-735z"/><path d="m29290 6475v-3216l843 3c738 4 857 6 967 22 707 100 1172 392 1416 891 119 244 164 451 171 793 7 315-15 501-88 727-161 503-561 834-1145 948-63 12-114 25-114 28s30 14 68 24c174 47 391 149 526 248 361 266 533 675 513 1217-7 169-23 285-61 425-143 527-589 903-1232 1039-278 58-288 59-1106 63l-758 4zm1400 2765c159-12 230-23 364-57 382-95 638-308 756-632 58-158 74-264 74-491 1-221-10-303-61-464-107-340-369-585-722-676-177-46-253-52-778-57l-503-6v1197 1196h368c202 0 428-5 502-10zm357-2833c744-118 1085-548 1085-1367 0-445-107-749-344-976-170-163-373-257-683-316-102-19-153-21-697-25l-588-4v1356 1357l563-5c451-3 582-7 664-20z"/><path d="m33910 6476v-3216h265 265l2 1448 3 1447h515 514l675-1447 674-1448h299 298l-14 33c-8 17-328 687-711 1487s-699 1462-702 1470c-3 12 23 26 104 59 334 134 583 329 764 600 109 162 168 293 219 486 49 185 64 315 64 555 1 291-27 483-101 693-203 583-676 911-1478 1023-101 14-239 18-887 21l-768 4zm1360 2763c576-41 897-184 1101-493 132-200 199-471 199-806 0-718-288-1132-887-1276-204-49-288-56-780-61l-463-5v1326 1326h343c188 0 407-5 487-11z"/><path d="m43780 6475v-3215h265 265v3215 3215h-265-265z"/><path d="m45440 8200c-597-818-1084-1491-1084-1495 1-3 514-780 1140-1726l1139-1719h308 309l-15 22c-849 1279-2280 3446-2280 3453 0 6 482 671 1071 1478 590 807 1072 1470 1072 1472 0 3-129 5-287 5l-288-1z"/><path d="m48130 6475v-3215h1390 1390v230 230h-1125-1125v1325 1325h925 925v225 225h-925-925v1210 1210h1073 1073l23 198c13 108 25 209 28 225l6 27h-1367-1366z"/><path d="m52080 6475v-3215h265 265v1450 1450h514 514l388-832c213-458 517-1110 674-1448l287-615 302-3 302-2-21 40c-25 50-1340 2798-1386 2896l-33 72 77 27c254 90 526 275 689 467 214 253 338 546 382 908 16 126 14 459-4 597-103 794-598 1255-1490 1387-206 31-352 36-1032 36h-693zm1355 2765c651-44 1010-241 1186-650 140-325 156-838 37-1210-91-284-257-484-507-609-98-50-285-109-415-131-182-31-351-40-753-40h-373v1325 1325h338c185 0 405-5 487-10z"/></g></svg>